<svg viewBox="0 0 2000 2228" version="1.1" xmlns="http://www.w3.org/2000/svg"><circle id="orange-sun" cx="1000" cy="1227.6" r="1000" fill="#f47920"/><path id="black" fill="#000" d="M1193,125c8.7-8.7,54.7-34.7,62-42c7.3-7.3,5.7-20.3-1-27c-14.6-14.6-58.4,5.4-80,27 c-16.3,16.3-17.5,31.5-8,41C1171.1,129.1,1184.3,133.7,1193,125z M1457,57c53.8,9.3,58.6,12.4,68,3c5.4-5.4,8.1-18.9-1-28 c-37.1-37.1-117.8-39.2-137-20c-8,8-7.6,21.4,0,29C1394.2,48.2,1403.2,47.7,1457,57z M1769,313c0-6.7,19-53.6,19-65 c0-45.9-62.8-57.1-74-59c1.5-7.6,4-17.6,4-31s-6.4-51-57-51c-26.4,0-87.1,16-94,16s-55.5-27-150-27s-185.6,37.9-212,84 c-127.4,0-134,162-134,190c0,28,2.7,95.4,50,135C573.1,716.2,257.9,701.1,189,770c-45.5,45.5-35.3,144.3,22,154 c43,116.5,142.7,63.7,204,125c77.2,77.2,84.5,493.2,271.7,680.4c157.3,157.3,421.9,125.2,542.3-92.4 c-53.3,436.8-113.4,271.8-244.5,590.4c5.1,0.1,10.3,0.1,15.4,0.1c199.5,0,385.3-58.4,541.3-159c-85.2-98.9-102.2-117-102.2-269.5 c0-367.8,129.3-1023.3,187-1081c3.8-3.8,164-88.3,164-277C1790,372.7,1769,319.7,1769,313z"/><path id="white" fill="#fff" d="M1179,485c40.1,0,83-52.1,83-144c0-6-0.3-13.2-1.1-20.9c-6.3-2.3-16-5-29.9-6.9c2,7.9,3,16.8,3,25.8 c0,30.7-14.6,71-41,71c-30.1,0-37-36.4-37-56c0-9.2,1.6-26.1,6.6-41.4c-18.1,1.9-32.5,5.3-43.1,8.6c-2.9,15.1-4.4,31.4-4.4,48.8 C1115,429.3,1138.9,485,1179,485z M1715,312c0-21.2,7.1-35.4,17-60c-32.5-17.8-45.7-3.7-63-21c-19.3-19.3-11.6-39-5-69 c-34.1,0-65.5,15-97,15c-28,0-62.9-27-150-27c-113.4,0-159,52-159,52s27.8,21.1,41,78c24.4-57.8,59.5-83,106-83 c65.1,0,98,47,98,133c0,38.9-8.6,71.2-12,85c75.7-22.5,127,33.1,127,93c0,103.9-114.5,138.3-207.5,402.8 c-132,375.3-117.3,889.9-203,1050.4c-52.8,99-92.6,95-161.5,265.3c162-7.4,314-53.3,446.9-128.8 c-85.7-101-107.9-130.2-107.9-303.8c0-348.4,126.3-1039.3,202-1115c9.6-9.6,148-74.3,148-242C1735,360.7,1715,349.4,1715,312z M1319.2,326.9c-4.3,19.8-6.2,39.9-6.2,57.1c0,78.2,35.2,107,71,107c56.2,0,84.7-82.5,86.9-155.9c-5.6-3-18.6-9.1-39.8-13.2 c3.4,9.4,4.9,20.6,4.9,32c0,30.7-14.6,71-41,71c-30.1,0-37-36.4-37-56c0-11.1,2.3-33.2,10-50.4 C1347.5,319.9,1331.3,323.3,1319.2,326.9z"/><path id="grey" fill="#dcddde" d="M1201,223c-27.7,0-51.9,20.3-67.5,53.6c18.1-2.9,40.2-5.6,60.3-5.6c22.7,0,44.4,3.2,58.9,5.9 C1244,248.2,1228.1,223,1201,223z M1405,230c-33.7-0.6-56.5,21.9-70.9,52.1c19.5-3.2,41.5-6.1,56.7-6.1 c28.9,0,63.7,9.9,77.4,14.1C1462.8,261.4,1447.7,230,1405,230z"/><path id="orange-beak" fill="#f47920" d="M1523,455c-36.2,0-61,25-61,25s-26.4,43-77,43c-50.6,0-78-39-78-39s-193,96.3-417,159 C487.2,755.7,363.1,762.1,249,796c-36.2,10.8-41.8,38.8-29,73c31.7-19.6,35.5-25.5,281-33c727.6-22.1,809.4-95.1,893-177 c50.4-49.4,73.6-95.5,82.8-98.7c4.8-1.6,9.9,4.4,9.7,7.1c-0.2,1.9-10.1,28.6-86.5,115.6c-132,150.4-489.4,170.6-799,185 c-209.8,9.8-336,21-336,21s-6.1,21.9,14,42c46.9,46.9,104.8,10.8,174,80c101.3,101.3,82.7,496.7,271,685 c129.8,129.8,311.4,87.6,395,4c167.8-167.8,138.8-473.3,234-764c96.9-295.7,219-337.6,219-429C1572,488.9,1559.2,455,1523,455z"/></svg>