<svg x="0px" y="0px" viewBox="0 0 535 140" style="enable-background:new 0 0 535 140;height:100%;width:100%" version="1.1" xmlns="http://www.w3.org/2000/svg"><path style="fill-rule:evenodd;clip-rule:evenodd;fill:#010202" d="M531.4,47.3c3.6-3.8,3.5-6.9,2.7-8.8c-0.5-1.4-1.5-2.4-2.7-3.1l-4.4-2.6c-2.4-1.4-5.8-1.7-9.2-1.7 c-3.9,0-8.8,0.4-13.1,0.8l-1.8,0.2l-1.2,1.4l-1.5,1.8c2.3-11.2,4.5-22,4.7-23.5c0.5-2.7-0.3-5.1-2.3-6.7c0,0,0,0,0,0l-3.8-3 c-1.6-1.3-3.8-1.9-6.8-1.9c-5.2,0-12.3,1.9-15.7,3l-2.5,0.8l-0.5,2.6l-7.2,34c-1.1-1.4-2.5-2.7-4.1-3.9l-3.7-2.7 c-2.5-1.8-5.2-3.2-7.6-4c-1.5-0.5-6.7-2.2-13.4-2.2c-9.5,0-17.9,3.4-24.2,9.8c-3.7,3.7-7.7,10.5-7.9,18.3 c-0.3,9.6,5.8,15,9.1,17.2c0,0,0.1,0.1,0.1,0.1c-0.4-0.1-0.8-0.1-1.2-0.1c-2.3,0-3.8,1.4-4.3,1.8c-1,0.9-2.2,2.1-2.7,2.6 c-1.8,1.9-4.9,5.4-5.8,8.3c-0.5-0.5-0.9-0.9-1.4-1.4c-0.2-0.2-0.4-0.3-0.6-0.5l-4-3c-1.9-1.4-4.1-2.4-6.5-2.9 c-1.2-0.3-2.4-0.4-3.7-0.4c-1.2,0-2.4,0.1-3.6,0.4c-1.6,0.3-3.1,0.9-4.4,1.6c0.2-0.7,0.4-1.5,0.5-2.3c3.7-15.7,4.7-23.3,4-29.4 c-0.5-4.7-2.3-10.1-6.9-13.1l-3.8-2.5c-2.9-1.9-6.5-3-10.6-3c-1.4,0-2.9,0.1-4.3,0.4c-2.4,0.4-4.6,1.2-6.6,2.1l-3.3-2.5 c-1.9-1.4-4.6-2.1-8.3-2.1c-4.8,0-10.7,1.2-13.1,2.1l-2.3,0.9l-0.5,2.4l-1,4.5l-0.3-0.2c-0.4-0.3-1.1-0.8-2-1.4l-4.8-2.9 c-4-2.4-10.4-5.2-18.8-5.2c-0.7,0-1.4,0-2.2,0.1c-10.1,0.6-17.4,3.5-26,10.7c-0.5-1.1-1.2-1.9-2.1-2.5l-3.9-2.9 c-2.3-1.7-5.7-2-9.2-2c-3.7,0-8.4,0.4-13.6,0.8l-1.8,0.2l-1.2,1.4l-1.3,1.5c2.6-12.7,4.3-20.9,4.7-23.2c0.5-2.7-0.3-5.2-2.3-6.7 c-0.1-0.1-0.1-0.1-0.2-0.2l-4-3c-1.6-1.2-3.8-1.8-6.7-1.8c-5.2,0-12.3,1.9-15.7,3L206,3.9l-0.5,2.6l-0.7,3.3 c-0.2-0.1-0.3-0.3-0.5-0.5l-4-3c-1-0.8-2.3-1.4-3.7-1.9c-1.6-0.6-3.4-0.8-3.4-0.8c-0.6-0.1-1.2-0.1-1.8-0.1c-1,0-1.9,0.1-2.9,0.2 c-2.6,0.4-5.3,1.4-7.9,2.9c-1.3,0.8-2.6,1.6-3.7,2.6c-0.3-1.5-1.1-2.9-2.3-3.8c0,0-0.1-0.1-0.1-0.1l-4-3 c-1.5-1.2-3.6-1.7-6.4-1.7c-6.5,0-15.9,3.2-17.7,3.8l-2.4,0.9l-0.5,2.5c-2.5,12.2-5,24.3-7.5,36.3c-1-1.7-2.3-3.3-3.8-4.9 c-0.7-0.8-1.8-1.8-3-2.7l-4-3c-3.2-2.4-8.1-4.8-14.8-4.8c-4.4,0-9,1-13.8,3.1C88.7,35.1,82,41,77,48.2c-1.2-4.3-3.3-8.1-6.3-11.2 c-0.6-0.6-1.2-1.1-1.9-1.6l-4-3c-3.2-2.4-7.2-3.6-11.9-3.6c-3.7,0-7.3,0.8-10.2,1.6l-3.4-2.6c-0.2-0.1-0.3-0.2-0.5-0.3 c-1.7-1.1-3.8-1.7-6.4-1.7c-4.9,0-10.4,2.1-12.2,2.8l-0.2,0.1l-2.3,0.9l-0.5,2.4c0,0.2-3.8,18.3-8.7,42.5 c-4.6,23-8.6,45.5-8.7,45.8c-0.9,5.1-0.1,9.2,2.4,12.3c0.6,0.7,1.2,1.3,1.9,1.8l4,3c2.1,1.6,4.7,2.4,7.5,2.5c0.9,0,1.8,0,2.8,0 c0.6,0,1.2,0,1.9,0c0.8,0,1.7,0,2.8,0c1.1,0,4.8-0.4,5.9-4.9c0.2-1,3.7-16.7,5.5-24.9c1.5,0.3,2.9,0.4,4.4,0.4 c13,0,24.3-10.5,30.5-21.4c0.8,2.5,1.9,5.1,3.5,7.6c1.8,2.8,4,5.2,6.5,7.1l4,3c4.1,3.1,9.1,5,14.9,5.7c1.5,0.2,3.1,0.3,4.5,0.3 c3.6,0,7.1-0.6,10.5-1.7c5-1.7,9.3-4.4,12.7-7.9c0.8-0.8,1.6-1.8,2.4-2.8c0.8,1.8,2,3.3,3.4,4.3l4,3c1.4,1,2.9,1.7,4.4,2 c2.8,0.6,6.3,0.9,10.6,0.9c2.9,0,5.4-1.9,6.2-4.7c0.4-1.5,1-4,1.6-6.8c0.8,2.2,2.1,3.8,3.6,4.9l4,3c4.3,3.2,10.5,3.2,13.1,3.2 c0.5,0,1.1,0,1.5,0l0.1,0c0.4,0,0.7,0,1,0c1.8,0,5-0.7,5.9-5.7c0.3-1.5,0.7-3.3,1.1-5.2c0.8,1.9,2,3.6,3.9,5l4,3 c0,0,0.1,0,0.1,0.1c2.4,1.7,6.1,2.6,11.5,2.6c1.2,0,2.4,0,3.6-0.1h0l0.2,0c2.6-0.2,4.7-2,5.2-4.5l0,0l0,0 c0.1-0.5,0.7-3.1,1.6-7.3c0,0.1,0,0.1,0.1,0.2l0.4,1.3c0.6,2,1.8,3.6,3.6,4.9l4,3c2.9,2.2,7.3,3.4,12.9,3.4 c2.8,0,5.6-0.3,7.9-0.8c1.7-0.4,3.2-1.4,4-2.9c0.9-1.4,1-3,0.9-4.4c0.9,1,1.8,1.8,2.9,2.6l4,3c1.7,1.3,3.6,2.3,5.7,3.1 c1.1,0.4,2.2,0.6,3.4,0.6c4.5,0,9.2-2.8,13-5.9l3.8,2.9c1.4,1.1,3.5,1.8,6.6,1.9c1.4,0,2.8,0,4,0c5.8,0,9.4-0.2,11.2-3.2 c0.3-0.5,0.5-0.8,1.5-5.6c0.3,0.5,0.6,1,1,1.5c0.5,0.6,1.1,1.2,1.7,1.6l4,3c3.6,2.7,8.6,3.1,12.7,3.1c0.7,0,1.3,0,2,0l0.8,0 l0.7,0c3.9,0,6.3-2.3,7.2-6.6c0.1-0.7,0.3-1.6,0.5-2.6c0.6,1.3,1.6,2.5,2.9,3.4l4,3c0,0,0,0,0,0c2.5,1.8,6,2.8,10.6,2.8 c3.2,0,6.9-0.5,9.4-1.3l2.4-0.8l0.6-2.5c0.2-0.8,0.5-1.9,0.8-3.4c0.2-0.7,0.4-1.4,0.6-2.2c0.8,1.2,1.8,2.2,2.9,3.1 c0.1,0.1,0.2,0.1,0.2,0.2l4,3c2,1.5,4.3,2.5,6.8,3.1c1.3,0.3,2.5,0.4,3.7,0.4c1.2,0,2.4-0.1,3.6-0.4c3.4-0.7,6.2-2.3,8.3-4.7 c1.8-1.9,3-4.1,3.6-6.5c6.3,7,16.7,11.4,27.4,11.4c0.6,0,1.2,0,1.7,0c10.3-0.5,18.6-4.1,24-10.3c0.8,1.6,2,3.1,3.7,4.3 c0,0,0,0,0,0l4.1,3c2.4,1.7,6.1,2.6,11.5,2.6c1.2,0,2.4,0,3.6-0.1h0l0.2,0c2.6-0.2,4.7-2,5.2-4.5l0,0l0,0c0,0,0.6-3,1.5-7.1 c0,0,0,0.1,0,0.1l0.4,1.3c0.7,2,1.9,3.7,3.7,5l4.1,3c2.9,2.1,7.3,3.3,12.8,3.3c2.8,0,5.6-0.3,7.9-0.8c1.7-0.4,3.2-1.4,4-2.9 c1.7-2.8,0.7-6.3,0.3-7.7L512.2,69c1.9-2.2,3.7-4.2,5.4-6.1C525.2,54.2,529.4,49.5,531.4,47.3z"/><path style="fill-rule:evenodd;clip-rule:evenodd;fill:#fff" d="M372.2,44.8c-0.7-6.5-5.6-11.3-13.4-11.3c-1.1,0-2.3,0.1-3.6,0.3c-7.6,1.3-13.2,7.1-13.2,7.1 s-0.1-0.2,0.8-5.5c0.5-3.1-2.7-4-6.6-4c-4.4,0-9.8,1.2-11.5,1.9l-13,59.8c-0.5,3-0.1,5.2,1.3,6.8c2.3,2.8,7.1,3.1,11,3.1 c0.7,0,1.3,0,1.9,0c0.5,0,1.1,0,1.5,0c1,0,2.2,0,2.7-2.9c1.4-6.9,6.5-32.2,7-34.7c1.2-5.6,3.8-10.9,7.1-13.2 c2-1.4,4.6-1.9,6.2-1.9c0.3,0,0.6,0,0.9,0.1c0.7,0.1,1.1,0.5,1,1.2c-1.3,6.6-9.4,44.2-9.5,45c-0.3,1.9,0.3,3.5,1.9,4.6 c1.9,1.4,4.9,1.9,7.9,1.9c3.1,0,6.2-0.5,8-1.1c0.8-3.3,3.4-13.4,7-29C371.1,58.1,373,51.7,372.2,44.8z M52.2,33 c-7.2,0-14.3,3.4-14.3,3.4s0.2-3.8-2.3-5.4c-1-0.7-2.4-0.9-3.9-0.9c-4.2,0-9.4,2.1-10.8,2.6c0,0-3.7,18-8.7,42.5 c-4.7,23.2-8.6,45.7-8.6,45.7C2,130.1,8,131.9,11.1,132c1,0,1.8,0,2.7,0c1.3,0,2.7,0,4.7,0c1,0,1.3-0.5,1.5-1.4 c0.3-1.3,6.6-29.6,6.6-29.6c2.6,1.1,5.2,1.6,7.8,1.6c12.4,0,23.5-11.9,28.3-22.5c8-17.6,9-34.2,0.1-43.3C59.9,33.9,56,33,52.2,33 z M42.8,78.2c-4.9,6-10.8,7.5-12.7,7.5c0,0,3.8-17.9,6.3-28l0.1-0.2c3.8-5,8.4-7.7,11.4-7.7c1.7,0,2.9,0.9,3.1,2.7 C51.7,59.9,48.5,71.3,42.8,78.2z M180.2,27.8c0.8,0.1,1.5,0.2,2.3,0.2c0.8,0,1.6-0.1,2.4-0.2c2.2-0.4,4.3-1.2,6.4-2.4 c2-1.1,3.7-2.5,5-4c1.9-2.2,3-4.3,3.3-6.4c0.4-2,0-3.7-0.9-5.1c-0.8-1.1-1.9-1.8-3.6-2.4l0,0c-0.9-0.3-2.2-0.5-2.3-0.5 c-0.5,0-0.9-0.1-1.4-0.1c-0.7,0-1.5,0.1-2.2,0.2c-2.1,0.3-4.2,1.1-6.3,2.3c-2,1.1-3.7,2.5-5.1,4c-1.9,2.1-3.1,4.3-3.3,6.4 c-0.4,1.9-0.1,3.6,0.9,5C176.4,26.4,178.1,27.4,180.2,27.8z M234.8,64.3l0.3-0.3c12.6-14.3,15.9-17.9,20.6-23.2 c1.7-1.9,1.8-3,1.2-4c-0.7-1.2-3.3-1.6-7-1.6c-3.5,0-8.1,0.4-13.2,0.8l-18.8,21.3l0.5-2.4c5.7-27.3,9.2-44.2,9.8-47.5 c0.2-1.1,0-1.8-0.7-2.4c-0.8-0.7-2.3-0.9-4-0.9c-4.5,0-11.1,1.7-14.3,2.8l-16.7,79.6c-1.3,7.5-0.6,11.4,2.7,13.8 c1.9,1.4,5.9,1.7,8.8,1.7c1.9,0,3.4-0.1,3.4-0.1h0c0.6-0.1,1-0.3,1.2-1c0,0,2.4-10.6,5.8-27.2l0.7-3.3l0.8,3 c2.3,8.6,5.7,18.8,7.5,24.2c1.3,3.9,7,5.1,12.2,5.1c2.6,0,5.1-0.3,6.9-0.7c2.2-0.5,1.4-3.4,1-5L234.8,64.3z M293.3,31.6 c-0.6,0-1.3,0-1.9,0.1c-10,0.6-16.8,3.7-25.8,11.8c-9.5,8.6-16.4,27.2-15.4,40.8c0.5,6.6,3,15.7,12.4,19.1 c0.6,0.2,1.2,0.3,1.8,0.3c6,0,14.5-8.6,17-11.8l1.6-2c0,0-0.5,7-0.4,9.2c0.1,3.1,3.1,3.4,5.1,3.4c0.7,0,1.3,0,1.9,0 c5.2,0,8.9-0.3,9.3-1l0,0c0-0.1,0.1-0.2,0.2-0.3c0.6-3.1,11.8-58.1,12.9-63.5C309.3,35.6,302.8,31.6,293.3,31.6z M266.3,86.2 c-0.9-7.7,2.1-21.5,9.1-29.9c4-4.8,10.5-9,15.3-9c0.5,0,0.9,0,1.3,0.1C285.2,72.9,266.3,86.2,266.3,86.2z M109.5,32.7 c-3.5,0-7.5,0.8-12,2.7c-15,6.5-26.5,24.3-25.9,42.8c0.3,8.8,4.2,24.1,22.7,26.4c1.3,0.2,2.6,0.2,4,0.2c3,0,6-0.4,9-1.5 c4.4-1.5,8-3.8,10.9-6.7c2.5-2.6,6.8-8.7,4.8-13.6c-1.4-3.6-4.5-4.9-5.6-5.3c-2.9,3-5.8,5.7-9.6,7.6c-4.4,2.2-8,3.1-10.7,3.1 c-6.5,0-8.5-4.9-8.3-8l0.1-0.8l0.8,0c4.6,0,9.4-0.7,14.2-2c4-1.1,7.5-2.3,10.3-3.7l3.3-1.7c6.1-3.1,10.5-8.3,11.8-13.8 c2.1-8.4-0.5-14.3-5.3-19.5C121.3,35.7,116.4,32.7,109.5,32.7z M103.4,60.9c-6.9,2.2-11,2.2-11,2.2c2.8-7.8,9.5-12.3,15.2-13.4 c0.7-0.1,1.5-0.2,2.1-0.2c2.4,0,4.4,0.7,4.9,1.9C115.9,54.3,109,59.1,103.4,60.9z M191.6,35.6c-0.8-0.6-2.1-0.8-3.7-0.8 c-4.9,0-12.5,2.3-16.2,3.5c-5.9,24-11.1,52-9.7,57.9c1.3,5.6,8.1,6.1,12.8,6.1c0.5,0,1.1,0,1.5,0c0.4,0,0.8,0,1.1,0 c0.8,0,1.2-0.5,1.5-2.1c2.1-10.5,6.9-32.5,10-47c1.8-8.2,3.2-14.6,3.3-15.4C192.4,36.8,192.2,36.1,191.6,35.6z M166.5,13 c0.4-1.8,0.7-3.6,1.1-5.4c0.2-1,0-1.7-0.6-2.1c-0.8-0.6-2.1-0.9-3.7-0.9c-4.9,0-12.5,2.2-16.2,3.5c-4.2,20.6-8.5,41.4-12.7,61.9 c-0.9,4.7-2.4,13.8-3.2,20.9c-1,8.5,3.4,10.4,5.4,10.8c3.3,0.7,7.3,0.8,9.7,0.8c1.1,0,1.6-0.8,1.8-1.3c1.1-4.1,3.6-16.1,4.8-22.3 l0.6-2.8c1.5-7.4,3.1-14.9,4.6-22.3l2.3-11.3c1.9-9.4,3.9-18.7,5.8-28.1L166.5,13z"/><path style="fill-rule:evenodd;clip-rule:evenodd;fill:#ee7203" d="M393.7,87.1L393.7,87.1c-0.7-1-1.3-1.8-2.1-2.4c-1.4-1.2-3.1-2-5.1-2.4c-0.9-0.2-1.8-0.3-2.7-0.3 c-0.9,0-1.8,0.1-2.7,0.3c-2.4,0.5-4.4,1.6-5.9,3.3c-1.4,1.4-2.3,3.1-2.6,5.1c-0.3,2.1,0,4.1,1.1,6c0.7,1.3,1.6,2.4,2.7,3.3 c1.5,1.2,3.2,2,5.1,2.4c0.9,0.2,1.9,0.3,2.8,0.3c0.9,0,1.8-0.1,2.6-0.3c2.5-0.5,4.4-1.6,5.9-3.3c1.5-1.5,2.4-3.3,2.7-5.2 c0.2-1.5,0-3-0.6-4.7C394.4,88.3,393.8,87.2,393.7,87.1z M523.3,40.9c1.7-1.9,1.9-3.1,1.2-4.1c-0.8-1.2-3.5-1.6-7.5-1.6 c-3.4,0-7.8,0.3-12.7,0.8l-18.7,21.4l0.5-2.4c5.7-27.5,9.2-44.4,9.8-47.7c0.2-1.1,0-1.8-0.7-2.4c-0.8-0.7-2.2-0.9-4-0.9 c-4.5,0-11,1.7-14.2,2.8l-16.7,79.9c-1.3,7.6-0.6,11.4,2.7,13.9c1.9,1.4,5.9,1.7,8.8,1.7c1.9,0,3.4-0.1,3.4-0.1h0 c0.6-0.1,1-0.3,1.2-1c0,0,2.3-10.7,5.8-27.3l0.7-3.3l0.8,3c2.3,8.7,5.7,18.8,7.5,24.3c1.3,3.9,7,5.1,12.1,5.1 c2.6,0,5.1-0.3,6.8-0.7c2.2-0.5,1.4-3.4,1-5l-8.7-32.7l0.3-0.3C515.3,49.8,518.6,46.2,523.3,40.9z M433.4,47.9 c1.5,0,3.1,0.2,4.7,0.5c8.5,1.9,12.7,7.4,12.7,7.4c0.4,0.4,0.7,0.6,1,0.6c0.4,0,0.8-0.3,1.2-0.6c0.9-0.8,2-1.9,2.4-2.4 c1.9-2,4.2-4.9,4.7-6.6c0.4-1.4,0.2-2.9-1.1-5.1c-2-3.4-6.3-6.4-10.6-7.9c-1.6-0.6-6.2-1.9-11.9-1.9c-6.5,0-14.3,1.8-20.9,8.5 c-3.3,3.3-6.4,9.1-6.6,15.4c-0.2,7.1,4.2,11.6,7.6,13.7c11,6.8,23.7,7.9,22.7,12.9c-0.5,2.3-4.2,3.6-8.5,3.6 c-1.5,0-3.1-0.2-4.7-0.5c-8.5-1.9-12.7-7.4-12.7-7.4c-0.4-0.4-0.7-0.6-1-0.6c-0.4,0-0.8,0.3-1.2,0.6c-0.9,0.8-2,1.9-2.4,2.4 c-1.9,2-4.2,4.9-4.7,6.6c-0.4,1.4-0.2,2.9,1.1,5.1c2,3.4,6.3,6.4,10.6,7.9c1.6,0.6,6.2,1.9,11.9,1.9c6.5,0,14.3-1.8,20.9-8.5 c3.3-3.3,6.5-9.1,6.4-15.4c-0.1-5.2-2.5-9.9-7.3-13.2c-3.6-2.8-7.9-4.6-12-6.3c-6.5-2.7-11.5-3.6-10.8-7.1 C425.4,49.1,429.2,47.9,433.4,47.9z"/></svg>